<svg xmlns="http://www.w3.org/2000/svg" xmlns:xlink="http://www.w3.org/1999/xlink" width="500" zoomAndPan="magnify" viewBox="0 0 375 374.999991" height="500" preserveAspectRatio="xMidYMid meet" version="1.0"><defs><g/><clipPath id="e744324dee"><path d="M 94.242188 31.328125 L 280.757812 31.328125 L 280.757812 248.367188 L 94.242188 248.367188 Z M 94.242188 31.328125 " clip-rule="nonzero"/></clipPath><clipPath id="5f614028da"><path d="M 187.5 31.328125 L 280.757812 85.585938 L 280.757812 194.105469 L 187.5 248.367188 L 94.242188 194.105469 L 94.242188 85.585938 L 187.5 31.328125 " clip-rule="nonzero"/></clipPath><clipPath id="180dc19a7c"><path d="M 110.355469 67.191406 L 184 67.191406 L 184 212.675781 L 110.355469 212.675781 Z M 110.355469 67.191406 " clip-rule="nonzero"/></clipPath><clipPath id="6793ed8c08"><path d="M 191 67.191406 L 264.855469 67.191406 L 264.855469 212.675781 L 191 212.675781 Z M 191 67.191406 " clip-rule="nonzero"/></clipPath></defs><g clip-path="url(#e744324dee)"><g clip-path="url(#5f614028da)"><path fill="#380036" d="M 94.242188 31.328125 L 280.757812 31.328125 L 280.757812 248.367188 L 94.242188 248.367188 Z M 94.242188 31.328125 " fill-opacity="1" fill-rule="nonzero"/></g></g><g clip-path="url(#180dc19a7c)"><path fill="#ffffff" d="M 153.21875 74.996094 C 153.441406 74.996094 153.667969 75.015625 153.894531 75.015625 C 156.757812 70.332031 161.90625 67.175781 167.769531 67.175781 C 176.683594 67.175781 183.988281 74.476562 183.988281 83.390625 L 183.988281 196.476562 C 183.988281 205.390625 176.683594 212.691406 167.769531 212.691406 C 159.234375 212.691406 152.175781 206 151.585938 197.621094 C 149.679688 198.28125 147.617188 198.644531 145.464844 198.644531 C 135.144531 198.644531 126.78125 190.285156 126.78125 179.96875 C 126.78125 178.09375 127.058594 176.289062 127.578125 174.574219 C 117.550781 170.898438 110.40625 161.273438 110.40625 149.984375 C 110.40625 143.464844 112.785156 137.515625 116.703125 132.9375 C 114.742188 129.847656 113.597656 126.191406 113.597656 122.269531 C 113.597656 111.277344 122.511719 102.359375 133.511719 102.359375 C 133.925781 102.359375 134.34375 102.378906 134.757812 102.394531 C 133.820312 100.089844 133.300781 97.558594 133.300781 94.902344 C 133.304688 83.910156 142.21875 74.996094 153.21875 74.996094 Z M 153.21875 74.996094 " fill-opacity="1" fill-rule="evenodd"/></g><g clip-path="url(#6793ed8c08)"><path fill="#ffffff" d="M 221.820312 74.996094 C 218.976562 70.316406 213.300781 67.175781 207.4375 67.175781 C 198.523438 67.175781 191.21875 74.476562 191.21875 83.390625 C 191.21875 121.089844 191.21875 158.792969 191.21875 196.476562 C 191.21875 205.390625 198.523438 212.691406 207.4375 212.691406 C 215.902344 212.691406 222.894531 206.136719 223.605469 197.863281 C 225.167969 198.261719 226.1875 198.296875 226.1875 198.296875 C 227.332031 198.519531 228.527344 198.640625 229.746094 198.640625 C 240.066406 198.640625 248.425781 190.28125 248.425781 179.964844 C 248.425781 178.140625 248.167969 176.390625 247.679688 174.742188 C 257.796875 170.257812 264.804688 161.726562 264.804688 149.984375 C 264.804688 143.570312 262.496094 137.6875 258.679688 133.144531 C 260.429688 129.816406 261.609375 126.054688 261.609375 122.273438 C 261.609375 111.28125 252.695312 102.363281 241.695312 102.363281 C 241.277344 102.363281 240.863281 102.382812 240.449219 102.398438 C 241.382812 100.089844 241.90625 97.558594 241.90625 94.90625 C 241.90625 83.5625 233.023438 74.632812 221.820312 74.996094 Z M 210.457031 137.671875 C 214.554688 137.671875 217.882812 141.003906 217.882812 145.09375 C 217.882812 149.203125 214.550781 152.515625 210.457031 152.515625 C 207.789062 152.515625 205.445312 151.109375 204.128906 148.976562 C 196.214844 152.808594 195.644531 166.320312 195.613281 169.113281 L 195.613281 196.476562 C 195.613281 202.964844 200.9375 208.304688 207.441406 208.304688 C 213.617188 208.304688 218.820312 203.46875 219.253906 197.3125 L 219.339844 196.238281 C 216.269531 194.640625 212.832031 191.816406 210.511719 186.800781 L 210.492188 186.800781 C 206.398438 186.800781 203.070312 183.488281 203.070312 179.378906 C 203.070312 175.285156 206.402344 171.957031 210.492188 171.957031 C 214.582031 171.957031 217.914062 175.289062 217.914062 179.378906 C 217.914062 181.480469 217.046875 183.367188 215.644531 184.722656 C 222.734375 199.828125 244.054688 196.03125 244.054688 179.96875 C 244.054688 178.738281 243.882812 177.507812 243.570312 176.3125 C 240.257812 177.371094 237.636719 177.699219 232.972656 177.578125 C 231.707031 179.832031 229.28125 181.359375 226.503906 181.359375 C 222.410156 181.359375 219.078125 178.046875 219.078125 173.9375 C 219.078125 169.84375 222.410156 166.515625 226.503906 166.515625 C 230.09375 166.515625 233.078125 169.066406 233.773438 172.445312 C 241.71875 172.777344 249.3125 168.980469 249.730469 168.769531 C 256.269531 164.886719 260.433594 157.792969 260.433594 149.988281 C 260.433594 145.304688 258.941406 140.796875 256.199219 137.066406 C 253.753906 140.273438 250.109375 143.621094 244.839844 145.25 C 244.058594 148.53125 241.128906 150.957031 237.609375 150.957031 C 233.511719 150.957031 230.199219 147.625 230.199219 143.535156 C 230.199219 139.445312 233.511719 136.113281 237.609375 136.113281 C 240.261719 136.113281 242.585938 137.5 243.886719 139.582031 C 252.507812 136.179688 256.148438 127.945312 256.285156 127.632812 C 256.910156 125.929688 257.222656 124.113281 257.222656 122.273438 C 257.222656 113.6875 250.265625 106.75 241.695312 106.75 C 241.367188 106.75 241.039062 106.75 240.722656 106.769531 L 239.628906 106.835938 C 237.667969 111.070312 232.847656 117.054688 223.308594 121.578125 C 223.359375 121.890625 223.375 122.203125 223.375 122.515625 C 223.375 126.625 220.042969 129.9375 215.953125 129.9375 C 211.859375 129.9375 208.527344 126.625 208.527344 122.515625 C 208.527344 118.421875 211.859375 115.09375 215.953125 115.09375 C 217.789062 115.09375 219.472656 115.769531 220.773438 116.878906 C 228.925781 113.636719 237.53125 104.203125 237.53125 94.910156 C 237.53125 86.515625 230.871094 79.683594 222.542969 79.386719 C 222.441406 82.835938 220.949219 88.871094 217.496094 92.773438 C 218.066406 93.832031 218.398438 95.046875 218.398438 96.332031 C 218.398438 100.425781 215.085938 103.753906 210.972656 103.753906 C 206.878906 103.753906 203.566406 100.421875 203.566406 96.332031 C 203.566406 92.242188 206.878906 88.910156 210.972656 88.910156 C 211.683594 88.910156 212.359375 89.015625 213.003906 89.1875 C 216.734375 84.4375 219.351562 77.878906 214.71875 74.152344 C 212.707031 72.523438 210.121094 71.601562 207.433594 71.570312 C 200.929688 71.464844 195.605469 76.894531 195.605469 83.394531 L 195.605469 150.386719 C 197.355469 147.804688 199.753906 145.652344 203.0625 144.4375 C 203.398438 140.636719 206.589844 137.671875 210.457031 137.671875 Z M 210.457031 141.921875 C 212.210938 141.921875 213.652344 143.34375 213.652344 145.09375 C 213.652344 146.863281 212.210938 148.285156 210.457031 148.285156 C 208.703125 148.285156 207.265625 146.863281 207.265625 145.09375 C 207.265625 143.339844 208.707031 141.921875 210.457031 141.921875 Z M 210.492188 176.203125 C 212.242188 176.203125 213.683594 177.625 213.683594 179.378906 C 213.683594 181.144531 212.246094 182.570312 210.492188 182.570312 C 208.722656 182.570312 207.300781 181.144531 207.300781 179.378906 C 207.300781 177.625 208.722656 176.203125 210.492188 176.203125 Z M 226.503906 170.757812 C 228.273438 170.757812 229.695312 172.179688 229.695312 173.929688 C 229.695312 174.121094 229.675781 174.3125 229.644531 174.488281 L 229.574219 174.765625 C 229.210938 176.117188 227.980469 177.125 226.507812 177.125 C 224.753906 177.125 223.3125 175.699219 223.3125 173.929688 C 223.308594 172.179688 224.753906 170.757812 226.503906 170.757812 Z M 237.605469 140.34375 C 239.375 140.34375 240.796875 141.78125 240.796875 143.535156 C 240.796875 145.289062 239.375 146.726562 237.605469 146.726562 C 235.855469 146.726562 234.429688 145.289062 234.429688 143.535156 C 234.429688 141.78125 235.855469 140.34375 237.605469 140.34375 Z M 215.957031 119.339844 C 217.707031 119.339844 219.152344 120.761719 219.152344 122.515625 C 219.152344 124.28125 217.710938 125.707031 215.957031 125.707031 C 214.1875 125.707031 212.765625 124.28125 212.765625 122.515625 C 212.765625 120.761719 214.1875 119.339844 215.957031 119.339844 Z M 212.679688 93.621094 L 212.800781 93.707031 C 212.765625 93.671875 212.710938 93.65625 212.679688 93.621094 Z M 212.679688 93.621094 L 212.609375 93.582031 L 212.59375 93.582031 L 212.472656 93.515625 L 212.4375 93.480469 L 212.417969 93.480469 L 212.367188 93.449219 L 212.328125 93.449219 L 212.277344 93.414062 L 212.226562 93.394531 L 212.207031 93.378906 L 212.152344 93.359375 L 212.085938 93.324219 L 212.050781 93.324219 L 212 93.304688 L 211.980469 93.304688 L 211.929688 93.289062 L 211.910156 93.269531 L 211.855469 93.25 L 211.839844 93.25 L 211.769531 93.230469 L 211.703125 93.214844 L 211.691406 93.214844 L 211.621094 93.195312 L 211.554688 93.175781 L 211.535156 93.175781 L 211.46875 93.15625 L 211.382812 93.15625 L 211.3125 93.140625 L 211.160156 93.140625 L 211.074219 93.121094 L 210.867188 93.121094 L 210.832031 93.140625 L 210.640625 93.140625 L 210.605469 93.15625 L 210.5 93.15625 L 210.484375 93.175781 L 210.429688 93.175781 L 210.398438 93.195312 L 210.34375 93.195312 L 210.308594 93.214844 L 210.277344 93.214844 L 210.222656 93.230469 L 210.1875 93.230469 L 210.144531 93.257812 L 210.113281 93.257812 L 210.09375 93.273438 L 210.058594 93.273438 L 210.042969 93.292969 L 210.023438 93.292969 L 209.96875 93.3125 L 209.9375 93.3125 L 209.902344 93.332031 L 209.882812 93.332031 L 209.867188 93.347656 L 209.8125 93.367188 L 209.777344 93.386719 L 209.746094 93.40625 L 209.710938 93.421875 L 209.675781 93.441406 L 209.660156 93.441406 L 209.625 93.460938 L 209.605469 93.460938 L 209.585938 93.480469 L 209.554688 93.496094 L 209.535156 93.496094 L 209.515625 93.515625 L 209.484375 93.535156 L 209.449219 93.554688 L 209.414062 93.570312 L 209.394531 93.589844 L 209.378906 93.589844 L 209.34375 93.625 L 209.324219 93.625 L 209.304688 93.640625 L 209.273438 93.660156 L 209.238281 93.679688 L 209.203125 93.714844 L 209.171875 93.730469 L 209.140625 93.726562 L 209.105469 93.761719 L 209.085938 93.777344 L 209.070312 93.777344 L 209.035156 93.8125 L 209.015625 93.8125 L 208.910156 93.917969 L 208.894531 93.917969 L 208.875 93.9375 L 208.839844 93.96875 L 208.804688 93.988281 L 208.789062 94.023438 L 208.753906 94.054688 L 208.734375 94.074219 L 208.714844 94.074219 L 208.699219 94.109375 L 208.664062 94.128906 L 208.664062 94.144531 L 208.644531 94.164062 L 208.613281 94.183594 L 208.613281 94.203125 C 208.109375 94.773438 207.796875 95.519531 207.796875 96.335938 C 207.796875 98.085938 209.21875 99.527344 210.972656 99.527344 C 212.742188 99.527344 214.214844 98.089844 214.164062 96.335938 L 214.164062 96.074219 L 214.144531 96.007812 L 214.144531 95.910156 L 214.125 95.839844 L 214.125 95.824219 L 214.109375 95.757812 L 214.089844 95.6875 L 214.089844 95.671875 C 214.089844 95.617188 214.070312 95.585938 214.054688 95.53125 L 214.039062 95.464844 L 214.019531 95.378906 L 214 95.308594 L 213.964844 95.242188 L 213.933594 95.171875 L 213.914062 95.105469 L 213.878906 95.039062 L 213.878906 95.019531 L 213.847656 94.96875 L 213.847656 94.949219 L 213.8125 94.894531 L 213.742188 94.757812 L 213.710938 94.6875 L 213.675781 94.636719 C 213.640625 94.585938 213.625 94.550781 213.589844 94.515625 L 213.570312 94.496094 L 213.535156 94.445312 L 213.535156 94.425781 L 213.503906 94.394531 L 213.46875 94.339844 L 213.34375 94.214844 C 213.277344 94.113281 213.1875 94.023438 213.085938 93.9375 L 213.066406 93.921875 L 213.035156 93.902344 L 213 93.867188 L 212.964844 93.847656 L 212.914062 93.796875 L 212.878906 93.777344 L 212.859375 93.746094 L 212.832031 93.726562 L 212.800781 93.707031 Z M 212.679688 93.621094 " fill-opacity="1" fill-rule="evenodd"/></g><g fill="#0cbaba" fill-opacity="1"><g transform="translate(28.883376, 283.117748)"><g><path d="M 25.90625 2.546875 C 21.289062 2.546875 17.597656 2.40625 14.828125 2.125 C 12.054688 1.84375 9.671875 1.238281 7.671875 0.3125 C 5.671875 -0.613281 3.992188 -2 2.640625 -3.84375 C 1.179688 -5.957031 0.453125 -8.90625 0.453125 -12.6875 C 0.453125 -17.101562 1.546875 -20.398438 3.734375 -22.578125 C 5.921875 -24.753906 8.984375 -25.84375 12.921875 -25.84375 C 16.835938 -25.84375 19.890625 -24.878906 22.078125 -22.953125 C 24.273438 -21.023438 25.375 -18.148438 25.375 -14.328125 C 25.375 -12.671875 25.109375 -11.117188 24.578125 -9.671875 C 24.046875 -8.222656 23.128906 -6.890625 21.828125 -5.671875 L 21.984375 -5.34375 L 25.90625 -5.34375 Z M 12.921875 -5.34375 C 14.398438 -5.34375 15.140625 -6.148438 15.140625 -7.765625 L 15.140625 -17.625 C 15.140625 -19.226562 14.398438 -20.03125 12.921875 -20.03125 C 11.441406 -20.03125 10.703125 -19.226562 10.703125 -17.625 L 10.703125 -7.765625 C 10.703125 -6.148438 11.441406 -5.34375 12.921875 -5.34375 Z M 12.921875 -5.34375 "/></g></g></g><g fill="#0cbaba" fill-opacity="1"><g transform="translate(55.298795, 283.117748)"><g><path d="M 12.859375 0.453125 C 9.441406 0.453125 6.800781 -0.296875 4.9375 -1.796875 C 3.082031 -3.296875 2.15625 -5.734375 2.15625 -9.109375 L 2.15625 -20.03125 L 0.515625 -20.03125 L 0.515625 -25.375 L 12.59375 -25.375 L 12.59375 -20.03125 L 11.28125 -20.03125 L 11.28125 -7.4375 C 11.28125 -6.71875 11.4375 -6.1875 11.75 -5.84375 C 12.070312 -5.507812 12.550781 -5.34375 13.1875 -5.34375 C 13.8125 -5.34375 14.28125 -5.507812 14.59375 -5.84375 C 14.914062 -6.1875 15.078125 -6.71875 15.078125 -7.4375 L 15.078125 -20.03125 L 13.765625 -20.03125 L 13.765625 -25.375 L 24.953125 -25.375 L 24.953125 -20.03125 L 23.328125 -20.03125 L 23.328125 -9.109375 C 23.328125 -5.734375 22.421875 -3.296875 20.609375 -1.796875 C 18.804688 -0.296875 16.222656 0.453125 12.859375 0.453125 Z M 12.859375 0.453125 "/></g></g></g><g fill="#0cbaba" fill-opacity="1"><g transform="translate(80.768466, 283.117748)"><g><path d="M 0.65625 0 L 0.65625 -5.34375 L 2.28125 -5.34375 L 2.28125 -20.03125 L 0.65625 -20.03125 L 0.65625 -25.375 L 13.046875 -25.375 L 13.046875 -20.03125 L 11.421875 -20.03125 L 11.421875 -5.34375 L 13.046875 -5.34375 L 13.046875 0 Z M 0.65625 0 "/></g></g></g><g fill="#0cbaba" fill-opacity="1"><g transform="translate(94.465345, 283.117748)"><g><path d="M 15.53125 -8.03125 L 22.015625 -8.03125 L 22.015625 0 L 0.453125 0 L 0.453125 -4.703125 L 10.5 -20.03125 L 7.109375 -20.03125 L 7.109375 -17.359375 L 0.625 -17.359375 L 0.625 -25.375 L 21.5 -25.375 L 21.5 -20.6875 L 11.484375 -5.34375 L 15.53125 -5.34375 Z M 15.53125 -8.03125 "/></g></g></g><g fill="#0cbaba" fill-opacity="1"><g transform="translate(116.934759, 283.117748)"><g><path d="M 28.546875 -25.375 L 38.984375 -25.375 L 38.984375 -20.03125 L 37.6875 -20.03125 L 32.828125 0 L 23.0625 0 L 20.09375 -14.09375 L 19.765625 -14.09375 L 16.640625 0 L 6.890625 0 L 1.703125 -20.03125 L 0.390625 -20.03125 L 0.390625 -25.375 L 12.46875 -25.375 L 12.46875 -20.03125 L 11.21875 -20.03125 L 12.5 -11.71875 L 12.828125 -11.71875 L 15.921875 -25.375 L 25.3125 -25.375 L 28.1875 -11.71875 L 28.515625 -11.71875 L 29.78125 -20.03125 L 28.546875 -20.03125 Z M 28.546875 -25.375 "/></g></g></g><g fill="#0cbaba" fill-opacity="1"><g transform="translate(156.296985, 283.117748)"><g><path d="M 0.65625 0 L 0.65625 -5.34375 L 2.28125 -5.34375 L 2.28125 -20.03125 L 0.65625 -20.03125 L 0.65625 -25.375 L 13.046875 -25.375 L 13.046875 -20.03125 L 11.421875 -20.03125 L 11.421875 -5.34375 L 13.046875 -5.34375 L 13.046875 0 Z M 0.65625 0 "/></g></g></g><g fill="#0cbaba" fill-opacity="1"><g transform="translate(169.993864, 283.117748)"><g><path d="M 15.53125 -8.03125 L 22.015625 -8.03125 L 22.015625 0 L 0.453125 0 L 0.453125 -4.703125 L 10.5 -20.03125 L 7.109375 -20.03125 L 7.109375 -17.359375 L 0.625 -17.359375 L 0.625 -25.375 L 21.5 -25.375 L 21.5 -20.6875 L 11.484375 -5.34375 L 15.53125 -5.34375 Z M 15.53125 -8.03125 "/></g></g></g><g fill="#0cbaba" fill-opacity="1"><g transform="translate(192.463278, 283.117748)"><g><path d="M 15.53125 -8.03125 L 22.015625 -8.03125 L 22.015625 0 L 0.453125 0 L 0.453125 -4.703125 L 10.5 -20.03125 L 7.109375 -20.03125 L 7.109375 -17.359375 L 0.625 -17.359375 L 0.625 -25.375 L 21.5 -25.375 L 21.5 -20.6875 L 11.484375 -5.34375 L 15.53125 -5.34375 Z M 15.53125 -8.03125 "/></g></g></g><g fill="#0cbaba" fill-opacity="1"><g transform="translate(214.932691, 283.117748)"><g><path d="M 14.90625 -25.375 L 24.921875 -25.375 L 24.921875 -20.03125 L 23.625 -20.03125 L 17.328125 -8.75 L 17.328125 -5.34375 L 18.953125 -5.34375 L 18.953125 0 L 6.5625 0 L 6.5625 -5.34375 L 8.1875 -5.34375 L 8.1875 -8.75 L 1.703125 -20.03125 L 0.390625 -20.03125 L 0.390625 -25.375 L 13.015625 -25.375 L 13.015625 -20.03125 L 11.875 -20.03125 L 13.796875 -14.96875 L 14.125 -14.96875 L 16.046875 -20.03125 L 14.90625 -20.03125 Z M 14.90625 -25.375 "/></g></g></g><g fill="#0cbaba" fill-opacity="1"><g transform="translate(240.239306, 283.117748)"><g><path d="M 15.53125 -8.03125 L 22.015625 -8.03125 L 22.015625 0 L 0.453125 0 L 0.453125 -4.703125 L 10.5 -20.03125 L 7.109375 -20.03125 L 7.109375 -17.359375 L 0.625 -17.359375 L 0.625 -25.375 L 21.5 -25.375 L 21.5 -20.6875 L 11.484375 -5.34375 L 15.53125 -5.34375 Z M 15.53125 -8.03125 "/></g></g></g><g fill="#0cbaba" fill-opacity="1"><g transform="translate(262.708719, 283.117748)"><g><path d="M 0.65625 0 L 0.65625 -5.34375 L 2.28125 -5.34375 L 2.28125 -20.03125 L 0.65625 -20.03125 L 0.65625 -25.375 L 13.046875 -25.375 L 13.046875 -20.03125 L 11.421875 -20.03125 L 11.421875 -5.34375 L 13.046875 -5.34375 L 13.046875 0 Z M 0.65625 0 "/></g></g></g><g fill="#0cbaba" fill-opacity="1"><g transform="translate(276.405599, 283.117748)"><g><path d="M 0.65625 0 L 0.65625 -5.34375 L 2.28125 -5.34375 L 2.28125 -20.03125 L 0.65625 -20.03125 L 0.65625 -25.375 L 14.421875 -25.375 L 14.421875 -20.03125 L 11.421875 -20.03125 L 11.421875 -5.34375 L 14.359375 -5.34375 L 14.359375 -8.359375 L 20.84375 -8.359375 L 20.84375 0 Z M 0.65625 0 "/></g></g></g><g fill="#0cbaba" fill-opacity="1"><g transform="translate(297.700967, 283.117748)"><g><path d="M 0.65625 0 L 0.65625 -5.34375 L 2.28125 -5.34375 L 2.28125 -20.03125 L 0.65625 -20.03125 L 0.65625 -25.375 L 14.421875 -25.375 L 14.421875 -20.03125 L 11.421875 -20.03125 L 11.421875 -5.34375 L 14.359375 -5.34375 L 14.359375 -8.359375 L 20.84375 -8.359375 L 20.84375 0 Z M 0.65625 0 "/></g></g></g><g fill="#0cbaba" fill-opacity="1"><g transform="translate(318.996364, 283.117748)"><g><path d="M 24.59375 -5.34375 L 25.90625 -5.34375 L 25.90625 0 L 13.109375 0 L 13.109375 -5.34375 L 15.078125 -5.34375 L 14.546875 -7.953125 L 10.109375 -7.953125 L 9.59375 -5.34375 L 11.546875 -5.34375 L 11.546875 0 L 0.390625 0 L 0.390625 -5.34375 L 1.703125 -5.34375 L 7.203125 -25.375 L 19.078125 -25.375 Z M 10.828125 -11.421875 L 13.828125 -11.421875 L 12.5 -17.90625 L 12.171875 -17.90625 Z M 10.828125 -11.421875 "/></g></g></g><g fill="#0cbaba" fill-opacity="1"><g transform="translate(345.278011, 283.117748)"><g/></g></g><g fill="#380036" fill-opacity="1"><g transform="translate(106.726199, 310.329722)"><g><path d="M 15.453125 -10.8125 L 11.984375 -10.8125 L 11.984375 -12.390625 L 10.6875 -12.390625 L 10.6875 -3.3125 L 12.109375 -3.3125 L 12.109375 0 L 3.625 0 L 3.625 -3.3125 L 5.046875 -3.3125 L 5.046875 -12.390625 L 3.75 -12.390625 L 3.75 -10.8125 L 0.28125 -10.8125 L 0.28125 -15.6875 L 15.453125 -15.6875 Z M 15.453125 -10.8125 "/></g></g></g><g fill="#380036" fill-opacity="1"><g transform="translate(138.585183, 310.329722)"><g><path d="M 0.40625 -3.3125 L 1.40625 -3.3125 L 1.40625 -12.390625 L 0.40625 -12.390625 L 0.40625 -15.6875 L 9.65625 -15.6875 C 11.394531 -15.6875 12.722656 -15.332031 13.640625 -14.625 C 14.554688 -13.914062 15.015625 -12.757812 15.015625 -11.15625 C 15.015625 -10.25 14.832031 -9.46875 14.46875 -8.8125 C 14.101562 -8.15625 13.582031 -7.695312 12.90625 -7.4375 L 12.9375 -7.234375 C 14.21875 -7.035156 14.859375 -6.242188 14.859375 -4.859375 L 14.859375 -3.3125 L 15.8125 -3.3125 L 15.8125 0 L 9.421875 0 L 9.421875 -4.734375 C 9.421875 -5.265625 9.34375 -5.660156 9.1875 -5.921875 C 9.03125 -6.191406 8.785156 -6.375 8.453125 -6.46875 C 8.128906 -6.5625 7.664062 -6.609375 7.0625 -6.609375 L 7.0625 -3.3125 L 8.390625 -3.3125 L 8.390625 0 L 0.40625 0 Z M 8.15625 -9.078125 C 8.539062 -9.078125 8.828125 -9.179688 9.015625 -9.390625 C 9.210938 -9.597656 9.3125 -9.925781 9.3125 -10.375 L 9.3125 -11.09375 C 9.3125 -11.539062 9.210938 -11.867188 9.015625 -12.078125 C 8.828125 -12.285156 8.539062 -12.390625 8.15625 -12.390625 L 7.0625 -12.390625 L 7.0625 -9.078125 Z M 8.15625 -9.078125 "/></g></g></g><g fill="#380036" fill-opacity="1"><g transform="translate(170.847332, 310.329722)"><g><path d="M 0.40625 0 L 0.40625 -3.3125 L 1.40625 -3.3125 L 1.40625 -12.390625 L 0.40625 -12.390625 L 0.40625 -15.6875 L 8.0625 -15.6875 L 8.0625 -12.390625 L 7.0625 -12.390625 L 7.0625 -3.3125 L 8.0625 -3.3125 L 8.0625 0 Z M 0.40625 0 "/></g></g></g><g fill="#380036" fill-opacity="1"><g transform="translate(195.449319, 310.329722)"><g><path d="M 8.875 -15.6875 L 15.609375 -15.6875 L 15.609375 -12.390625 L 14.8125 -12.390625 L 11.203125 0 L 4.65625 0 L 1.046875 -12.390625 L 0.234375 -12.390625 L 0.234375 -15.6875 L 7.984375 -15.6875 L 7.984375 -12.390625 L 6.9375 -12.390625 L 8.328125 -5.625 L 8.53125 -5.625 L 9.921875 -12.390625 L 8.875 -12.390625 Z M 8.875 -15.6875 "/></g></g></g><g fill="#380036" fill-opacity="1"><g transform="translate(227.42925, 310.329722)"><g><path d="M 0.40625 0 L 0.40625 -3.3125 L 1.40625 -3.3125 L 1.40625 -12.390625 L 0.40625 -12.390625 L 0.40625 -15.6875 L 8.0625 -15.6875 L 8.0625 -12.390625 L 7.0625 -12.390625 L 7.0625 -3.3125 L 8.0625 -3.3125 L 8.0625 0 Z M 0.40625 0 "/></g></g></g><g fill="#380036" fill-opacity="1"><g transform="translate(252.031245, 310.329722)"><g><path d="M 15.203125 -3.3125 L 16.015625 -3.3125 L 16.015625 0 L 8.109375 0 L 8.109375 -3.3125 L 9.3125 -3.3125 L 9 -4.921875 L 6.25 -4.921875 L 5.9375 -3.3125 L 7.140625 -3.3125 L 7.140625 0 L 0.234375 0 L 0.234375 -3.3125 L 1.046875 -3.3125 L 4.453125 -15.6875 L 11.796875 -15.6875 Z M 6.703125 -7.0625 L 8.546875 -7.0625 L 7.71875 -11.078125 L 7.53125 -11.078125 Z M 6.703125 -7.0625 "/></g></g></g><g fill="#380036" fill-opacity="1"><g transform="translate(29.423118, 338.043556)"><g><path d="M 15.453125 -10.8125 L 11.984375 -10.8125 L 11.984375 -12.390625 L 10.6875 -12.390625 L 10.6875 -3.3125 L 12.109375 -3.3125 L 12.109375 0 L 3.625 0 L 3.625 -3.3125 L 5.046875 -3.3125 L 5.046875 -12.390625 L 3.75 -12.390625 L 3.75 -10.8125 L 0.28125 -10.8125 L 0.28125 -15.6875 L 15.453125 -15.6875 Z M 15.453125 -10.8125 "/></g></g></g><g fill="#380036" fill-opacity="1"><g transform="translate(61.282101, 338.043556)"><g><path d="M 7.984375 0.28125 C 5.523438 0.28125 3.625 -0.363281 2.28125 -1.65625 C 0.945312 -2.945312 0.28125 -5.007812 0.28125 -7.84375 C 0.28125 -10.6875 0.945312 -12.75 2.28125 -14.03125 C 3.625 -15.320312 5.523438 -15.96875 7.984375 -15.96875 C 10.441406 -15.96875 12.335938 -15.320312 13.671875 -14.03125 C 15.015625 -12.75 15.6875 -10.6875 15.6875 -7.84375 C 15.6875 -5.007812 15.015625 -2.945312 13.671875 -1.65625 C 12.335938 -0.363281 10.441406 0.28125 7.984375 0.28125 Z M 7.984375 -3.3125 C 8.441406 -3.3125 8.785156 -3.429688 9.015625 -3.671875 C 9.242188 -3.910156 9.359375 -4.285156 9.359375 -4.796875 L 9.359375 -10.890625 C 9.359375 -11.398438 9.242188 -11.773438 9.015625 -12.015625 C 8.785156 -12.265625 8.441406 -12.390625 7.984375 -12.390625 C 7.523438 -12.390625 7.179688 -12.265625 6.953125 -12.015625 C 6.722656 -11.773438 6.609375 -11.398438 6.609375 -10.890625 L 6.609375 -4.796875 C 6.609375 -4.273438 6.722656 -3.894531 6.953125 -3.65625 C 7.179688 -3.425781 7.523438 -3.3125 7.984375 -3.3125 Z M 7.984375 -3.3125 "/></g></g></g><g fill="#380036" fill-opacity="1"><g transform="translate(93.382987, 338.043556)"><g><path d="M 7.953125 0.28125 C 5.835938 0.28125 4.203125 -0.179688 3.046875 -1.109375 C 1.898438 -2.035156 1.328125 -3.539062 1.328125 -5.625 L 1.328125 -12.390625 L 0.328125 -12.390625 L 0.328125 -15.6875 L 7.78125 -15.6875 L 7.78125 -12.390625 L 6.984375 -12.390625 L 6.984375 -4.59375 C 6.984375 -4.15625 7.078125 -3.832031 7.265625 -3.625 C 7.460938 -3.414062 7.757812 -3.3125 8.15625 -3.3125 C 8.539062 -3.3125 8.828125 -3.414062 9.015625 -3.625 C 9.210938 -3.832031 9.3125 -4.15625 9.3125 -4.59375 L 9.3125 -12.390625 L 8.515625 -12.390625 L 8.515625 -15.6875 L 15.4375 -15.6875 L 15.4375 -12.390625 L 14.421875 -12.390625 L 14.421875 -5.625 C 14.421875 -3.539062 13.863281 -2.035156 12.75 -1.109375 C 11.632812 -0.179688 10.035156 0.28125 7.953125 0.28125 Z M 7.953125 0.28125 "/></g></g></g><g fill="#380036" fill-opacity="1"><g transform="translate(125.262119, 338.043556)"><g><path d="M 0.40625 -3.3125 L 1.40625 -3.3125 L 1.40625 -12.390625 L 0.40625 -12.390625 L 0.40625 -15.6875 L 9.65625 -15.6875 C 11.394531 -15.6875 12.722656 -15.332031 13.640625 -14.625 C 14.554688 -13.914062 15.015625 -12.757812 15.015625 -11.15625 C 15.015625 -10.25 14.832031 -9.46875 14.46875 -8.8125 C 14.101562 -8.15625 13.582031 -7.695312 12.90625 -7.4375 L 12.9375 -7.234375 C 14.21875 -7.035156 14.859375 -6.242188 14.859375 -4.859375 L 14.859375 -3.3125 L 15.8125 -3.3125 L 15.8125 0 L 9.421875 0 L 9.421875 -4.734375 C 9.421875 -5.265625 9.34375 -5.660156 9.1875 -5.921875 C 9.03125 -6.191406 8.785156 -6.375 8.453125 -6.46875 C 8.128906 -6.5625 7.664062 -6.609375 7.0625 -6.609375 L 7.0625 -3.3125 L 8.390625 -3.3125 L 8.390625 0 L 0.40625 0 Z M 8.15625 -9.078125 C 8.539062 -9.078125 8.828125 -9.179688 9.015625 -9.390625 C 9.210938 -9.597656 9.3125 -9.925781 9.3125 -10.375 L 9.3125 -11.09375 C 9.3125 -11.539062 9.210938 -11.867188 9.015625 -12.078125 C 8.828125 -12.285156 8.539062 -12.390625 8.15625 -12.390625 L 7.0625 -12.390625 L 7.0625 -9.078125 Z M 8.15625 -9.078125 "/></g></g></g><g fill="#380036" fill-opacity="1"><g transform="translate(157.52427, 338.043556)"><g><path d="M 12.015625 -15.6875 L 18.640625 -15.6875 L 18.640625 -12.390625 L 17.625 -12.390625 L 17.625 0 L 11.96875 0 L 6.046875 -9.09375 L 6.046875 -3.3125 L 7.015625 -3.3125 L 7.015625 0 L 0.40625 0 L 0.40625 -3.3125 L 1.40625 -3.3125 L 1.40625 -12.390625 L 0.40625 -12.390625 L 0.40625 -15.6875 L 7.6875 -15.6875 L 12.984375 -7.609375 L 12.984375 -12.390625 L 12.015625 -12.390625 Z M 12.015625 -15.6875 "/></g></g></g><g fill="#380036" fill-opacity="1"><g transform="translate(192.648908, 338.043556)"><g><path d="M 15.203125 -3.3125 L 16.015625 -3.3125 L 16.015625 0 L 8.109375 0 L 8.109375 -3.3125 L 9.3125 -3.3125 L 9 -4.921875 L 6.25 -4.921875 L 5.9375 -3.3125 L 7.140625 -3.3125 L 7.140625 0 L 0.234375 0 L 0.234375 -3.3125 L 1.046875 -3.3125 L 4.453125 -15.6875 L 11.796875 -15.6875 Z M 6.703125 -7.0625 L 8.546875 -7.0625 L 7.71875 -11.078125 L 7.53125 -11.078125 Z M 6.703125 -7.0625 "/></g></g></g><g fill="#380036" fill-opacity="1"><g transform="translate(225.032003, 338.043556)"><g><path d="M 22.65625 -12.390625 L 21.640625 -12.390625 L 21.640625 -3.3125 L 22.65625 -3.3125 L 22.65625 0 L 15.03125 0 L 15.03125 -3.3125 L 16 -3.3125 L 16 -10.375 L 12.5625 0 L 9.578125 0 L 6.046875 -10.265625 L 6.046875 -3.3125 L 7.015625 -3.3125 L 7.015625 0 L 0.40625 0 L 0.40625 -3.3125 L 1.40625 -3.3125 L 1.40625 -12.390625 L 0.40625 -12.390625 L 0.40625 -15.6875 L 9.640625 -15.6875 L 11.734375 -9.40625 L 13.75 -15.6875 L 22.65625 -15.6875 Z M 22.65625 -12.390625 "/></g></g></g><g fill="#380036" fill-opacity="1"><g transform="translate(264.208454, 338.043556)"><g><path d="M 0.40625 0 L 0.40625 -3.3125 L 1.40625 -3.3125 L 1.40625 -12.390625 L 0.40625 -12.390625 L 0.40625 -15.6875 L 14.015625 -15.6875 L 14.015625 -9.609375 L 9.5 -9.609375 L 9.5 -12.390625 L 7.0625 -12.390625 L 7.0625 -9.203125 L 8.828125 -9.203125 L 8.828125 -6.90625 L 7.0625 -6.90625 L 7.0625 -3.3125 L 9.5 -3.3125 L 9.5 -6.5 L 14.015625 -6.5 L 14.015625 0 Z M 0.40625 0 "/></g></g></g><g fill="#380036" fill-opacity="1"><g transform="translate(294.716837, 338.043556)"><g><path d="M 12.015625 -15.6875 L 18.640625 -15.6875 L 18.640625 -12.390625 L 17.625 -12.390625 L 17.625 0 L 11.96875 0 L 6.046875 -9.09375 L 6.046875 -3.3125 L 7.015625 -3.3125 L 7.015625 0 L 0.40625 0 L 0.40625 -3.3125 L 1.40625 -3.3125 L 1.40625 -12.390625 L 0.40625 -12.390625 L 0.40625 -15.6875 L 7.6875 -15.6875 L 12.984375 -7.609375 L 12.984375 -12.390625 L 12.015625 -12.390625 Z M 12.015625 -15.6875 "/></g></g></g><g fill="#380036" fill-opacity="1"><g transform="translate(329.841475, 338.043556)"><g><path d="M 15.453125 -10.8125 L 11.984375 -10.8125 L 11.984375 -12.390625 L 10.6875 -12.390625 L 10.6875 -3.3125 L 12.109375 -3.3125 L 12.109375 0 L 3.625 0 L 3.625 -3.3125 L 5.046875 -3.3125 L 5.046875 -12.390625 L 3.75 -12.390625 L 3.75 -10.8125 L 0.28125 -10.8125 L 0.28125 -15.6875 L 15.453125 -15.6875 Z M 15.453125 -10.8125 "/></g></g></g></svg>