<svg xmlns="http://www.w3.org/2000/svg" xmlns:xlink="http://www.w3.org/1999/xlink" width="500" zoomAndPan="magnify" viewBox="0 0 375 374.999991" height="500" preserveAspectRatio="xMidYMid meet" version="1.0"><defs><clipPath id="8432891160"><path d="M 39.695312 15.507812 L 335.304688 15.507812 L 335.304688 359.492188 L 39.695312 359.492188 Z M 39.695312 15.507812 " clip-rule="nonzero"/></clipPath><clipPath id="7f012f3af4"><path d="M 187.5 15.507812 L 335.304688 101.503906 L 335.304688 273.496094 L 187.5 359.492188 L 39.695312 273.496094 L 39.695312 101.503906 L 187.5 15.507812 " clip-rule="nonzero"/></clipPath><clipPath id="a8584f0155"><path d="M 65.234375 72.347656 L 182 72.347656 L 182 302.574219 L 65.234375 302.574219 Z M 65.234375 72.347656 " clip-rule="nonzero"/></clipPath><clipPath id="1370bc103f"><path d="M 193 72.347656 L 309.734375 72.347656 L 309.734375 302.574219 L 193 302.574219 Z M 193 72.347656 " clip-rule="nonzero"/></clipPath></defs><g clip-path="url(#8432891160)"><g clip-path="url(#7f012f3af4)"><path fill="#380036" d="M 39.695312 15.507812 L 335.304688 15.507812 L 335.304688 359.492188 L 39.695312 359.492188 Z M 39.695312 15.507812 " fill-opacity="1" fill-rule="nonzero"/></g></g><g clip-path="url(#a8584f0155)"><path fill="#ffffff" d="M 133.0625 84.699219 C 133.417969 84.699219 133.773438 84.726562 134.132812 84.726562 C 138.660156 77.316406 146.8125 72.324219 156.09375 72.324219 C 170.203125 72.324219 181.761719 83.878906 181.761719 97.980469 L 181.761719 276.941406 C 181.761719 291.042969 170.203125 302.597656 156.09375 302.597656 C 142.585938 302.597656 131.414062 292.007812 130.480469 278.753906 C 127.460938 279.792969 124.195312 280.371094 120.789062 280.371094 C 104.457031 280.371094 91.222656 267.140625 91.222656 250.8125 C 91.222656 247.847656 91.664062 244.996094 92.484375 242.277344 C 76.617188 236.460938 65.308594 221.230469 65.308594 203.367188 C 65.308594 193.046875 69.070312 183.632812 75.273438 176.386719 C 72.171875 171.503906 70.355469 165.714844 70.355469 159.507812 C 70.355469 142.113281 84.464844 128.003906 101.875 128.003906 C 102.53125 128.003906 103.191406 128.03125 103.847656 128.058594 C 102.367188 124.40625 101.539062 120.402344 101.539062 116.199219 C 101.546875 98.808594 115.652344 84.699219 133.0625 84.699219 Z M 133.0625 84.699219 " fill-opacity="1" fill-rule="evenodd"/></g><g clip-path="url(#1370bc103f)"><path fill="#ffffff" d="M 241.628906 84.699219 C 237.128906 77.292969 228.152344 72.324219 218.871094 72.324219 C 204.761719 72.324219 193.207031 83.878906 193.207031 97.980469 C 193.207031 157.644531 193.207031 217.304688 193.207031 276.941406 C 193.207031 291.042969 204.761719 302.597656 218.871094 302.597656 C 232.265625 302.597656 243.332031 292.226562 244.453125 279.132812 C 246.925781 279.765625 248.546875 279.816406 248.546875 279.816406 C 250.359375 280.175781 252.25 280.363281 254.175781 280.363281 C 270.507812 280.363281 283.742188 267.136719 283.742188 250.808594 C 283.742188 247.925781 283.332031 245.15625 282.558594 242.546875 C 298.566406 235.449219 309.65625 221.945312 309.65625 203.367188 C 309.65625 193.214844 306.003906 183.90625 299.964844 176.71875 C 302.734375 171.449219 304.601562 165.5 304.601562 159.515625 C 304.601562 142.117188 290.496094 128.007812 273.085938 128.007812 C 272.425781 128.007812 271.769531 128.039062 271.113281 128.0625 C 272.59375 124.414062 273.417969 120.40625 273.417969 116.203125 C 273.417969 98.257812 259.363281 84.121094 241.628906 84.699219 Z M 223.652344 183.882812 C 230.132812 183.882812 235.398438 189.152344 235.398438 195.628906 C 235.398438 202.128906 230.125 207.371094 223.652344 207.371094 C 219.421875 207.371094 215.71875 205.148438 213.632812 201.773438 C 201.113281 207.835938 200.207031 229.214844 200.15625 233.636719 L 200.15625 276.941406 C 200.15625 287.203125 208.585938 295.65625 218.875 295.65625 C 228.648438 295.65625 236.882812 288 237.570312 278.257812 L 237.707031 276.558594 C 232.847656 274.035156 227.410156 269.5625 223.734375 261.628906 L 223.703125 261.628906 C 217.222656 261.628906 211.957031 256.386719 211.957031 249.886719 C 211.957031 243.40625 217.230469 238.140625 223.703125 238.140625 C 230.179688 238.140625 235.453125 243.410156 235.453125 249.886719 C 235.453125 253.207031 234.078125 256.195312 231.855469 258.335938 C 243.082031 282.242188 276.820312 276.230469 276.820312 250.816406 C 276.820312 248.867188 276.546875 246.917969 276.054688 245.027344 C 270.808594 246.703125 266.664062 247.222656 259.28125 247.03125 C 257.277344 250.597656 253.4375 253.015625 249.042969 253.015625 C 242.5625 253.015625 237.296875 247.773438 237.296875 241.273438 C 237.296875 234.792969 242.566406 229.527344 249.042969 229.527344 C 254.726562 229.527344 259.449219 233.5625 260.546875 238.910156 C 273.121094 239.433594 285.144531 233.425781 285.804688 233.09375 C 296.152344 226.949219 302.742188 215.722656 302.742188 203.371094 C 302.742188 195.960938 300.378906 188.828125 296.042969 182.925781 C 292.171875 188 286.402344 193.296875 278.0625 195.875 C 276.824219 201.066406 272.1875 204.90625 266.617188 204.90625 C 260.136719 204.90625 254.894531 199.632812 254.894531 193.160156 C 254.894531 186.6875 260.136719 181.414062 266.617188 181.414062 C 270.816406 181.414062 274.496094 183.609375 276.550781 186.902344 C 290.195312 181.523438 295.957031 168.488281 296.179688 167.996094 C 297.164062 165.304688 297.660156 162.425781 297.660156 159.515625 C 297.660156 145.929688 286.648438 134.949219 273.085938 134.949219 C 272.5625 134.949219 272.046875 134.949219 271.546875 134.980469 L 269.816406 135.085938 C 266.714844 141.785156 259.085938 151.253906 243.984375 158.414062 C 244.070312 158.910156 244.09375 159.402344 244.09375 159.894531 C 244.09375 166.398438 238.820312 171.640625 232.34375 171.640625 C 225.871094 171.640625 220.597656 166.398438 220.597656 159.894531 C 220.597656 153.417969 225.871094 148.152344 232.34375 148.152344 C 235.253906 148.152344 237.914062 149.21875 239.976562 150.980469 C 252.878906 145.851562 266.496094 130.917969 266.496094 116.210938 C 266.496094 102.925781 255.953125 92.113281 242.777344 91.644531 C 242.613281 97.109375 240.25 106.660156 234.789062 112.832031 C 235.691406 114.507812 236.214844 116.429688 236.214844 118.460938 C 236.214844 124.941406 230.972656 130.207031 224.46875 130.207031 C 217.988281 130.207031 212.742188 124.933594 212.742188 118.460938 C 212.742188 111.988281 217.988281 106.71875 224.46875 106.71875 C 225.589844 106.71875 226.660156 106.882812 227.675781 107.15625 C 233.582031 99.636719 237.726562 89.261719 230.394531 83.363281 C 227.207031 80.785156 223.117188 79.328125 218.867188 79.277344 C 208.570312 79.109375 200.144531 87.703125 200.144531 97.992188 L 200.144531 204.003906 C 202.914062 199.917969 206.707031 196.511719 211.945312 194.589844 C 212.480469 188.574219 217.527344 183.882812 223.652344 183.882812 Z M 223.652344 190.605469 C 226.421875 190.605469 228.703125 192.855469 228.703125 195.628906 C 228.703125 198.425781 226.425781 200.679688 223.652344 200.679688 C 220.875 200.679688 218.597656 198.425781 218.597656 195.628906 C 218.597656 192.851562 220.878906 190.605469 223.652344 190.605469 Z M 223.703125 244.859375 C 226.476562 244.859375 228.757812 247.109375 228.757812 249.878906 C 228.757812 252.679688 226.480469 254.929688 223.703125 254.929688 C 220.90625 254.929688 218.652344 252.679688 218.652344 249.878906 C 218.652344 247.109375 220.90625 244.859375 223.703125 244.859375 Z M 249.042969 236.238281 C 251.84375 236.238281 254.097656 238.492188 254.097656 241.261719 C 254.097656 241.566406 254.066406 241.867188 254.011719 242.140625 L 253.90625 242.582031 C 253.328125 244.722656 251.378906 246.3125 249.046875 246.3125 C 246.277344 246.3125 243.996094 244.0625 243.996094 241.261719 C 243.992188 238.492188 246.273438 236.238281 249.042969 236.238281 Z M 266.613281 188.109375 C 269.414062 188.109375 271.664062 190.386719 271.664062 193.160156 C 271.664062 195.933594 269.414062 198.210938 266.613281 198.210938 C 263.839844 198.210938 261.589844 195.933594 261.589844 193.160156 C 261.589844 190.386719 263.839844 188.109375 266.613281 188.109375 Z M 232.355469 154.875 C 235.125 154.875 237.40625 157.125 237.40625 159.894531 C 237.40625 162.695312 235.128906 164.945312 232.355469 164.945312 C 229.554688 164.945312 227.300781 162.695312 227.300781 159.894531 C 227.300781 157.125 229.554688 154.875 232.355469 154.875 Z M 227.164062 114.171875 L 227.355469 114.308594 C 227.300781 114.253906 227.21875 114.230469 227.164062 114.171875 Z M 227.164062 114.171875 L 227.109375 114.144531 L 227.058594 114.113281 L 227.027344 114.113281 L 226.835938 114.007812 L 226.785156 113.953125 L 226.753906 113.953125 L 226.671875 113.898438 L 226.613281 113.898438 L 226.527344 113.84375 L 226.445312 113.816406 L 226.417969 113.785156 L 226.332031 113.757812 L 226.226562 113.703125 L 226.171875 113.703125 L 226.089844 113.675781 L 226.058594 113.675781 L 225.976562 113.644531 L 225.949219 113.617188 L 225.863281 113.585938 L 225.835938 113.585938 L 225.726562 113.558594 L 225.621094 113.527344 L 225.601562 113.527344 L 225.492188 113.5 L 225.386719 113.46875 L 225.355469 113.46875 L 225.25 113.441406 L 225.113281 113.441406 L 225.003906 113.410156 L 224.761719 113.410156 L 224.625 113.382812 L 224.296875 113.382812 L 224.242188 113.410156 L 223.9375 113.410156 L 223.886719 113.441406 L 223.71875 113.441406 L 223.691406 113.46875 L 223.605469 113.46875 L 223.554688 113.5 L 223.46875 113.5 L 223.417969 113.527344 L 223.363281 113.527344 L 223.28125 113.558594 L 223.222656 113.558594 L 223.15625 113.597656 L 223.105469 113.597656 L 223.074219 113.625 L 223.019531 113.625 L 222.992188 113.65625 L 222.960938 113.65625 L 222.878906 113.683594 L 222.824219 113.683594 L 222.769531 113.714844 L 222.742188 113.714844 L 222.710938 113.742188 L 222.628906 113.773438 L 222.574219 113.800781 L 222.523438 113.832031 L 222.46875 113.859375 L 222.414062 113.890625 L 222.386719 113.890625 L 222.332031 113.917969 L 222.300781 113.917969 L 222.273438 113.949219 L 222.21875 113.976562 L 222.191406 113.976562 L 222.160156 114.007812 L 222.105469 114.035156 L 222.054688 114.066406 L 222 114.09375 L 221.96875 114.125 L 221.941406 114.125 L 221.886719 114.175781 L 221.859375 114.175781 L 221.828125 114.207031 L 221.773438 114.234375 L 221.71875 114.265625 L 221.667969 114.320312 L 221.613281 114.347656 L 221.5625 114.339844 L 221.480469 114.421875 L 221.453125 114.421875 L 221.398438 114.476562 L 221.367188 114.476562 L 221.203125 114.640625 L 221.171875 114.640625 L 221.144531 114.671875 L 221.089844 114.726562 L 221.035156 114.753906 L 221.007812 114.808594 L 220.925781 114.890625 L 220.894531 114.890625 L 220.867188 114.945312 L 220.8125 114.972656 L 220.8125 115.003906 L 220.78125 115.03125 L 220.730469 115.0625 L 220.730469 115.089844 C 219.933594 115.996094 219.4375 117.175781 219.4375 118.46875 C 219.4375 121.238281 221.691406 123.519531 224.460938 123.519531 C 227.261719 123.519531 229.59375 121.242188 229.515625 118.46875 L 229.515625 118.054688 L 229.484375 117.949219 L 229.484375 117.792969 L 229.457031 117.683594 L 229.457031 117.660156 L 229.425781 117.554688 L 229.398438 117.445312 L 229.398438 117.417969 C 229.398438 117.332031 229.367188 117.28125 229.34375 117.195312 L 229.316406 117.089844 L 229.285156 116.953125 L 229.257812 116.84375 L 229.203125 116.738281 L 229.148438 116.628906 L 229.121094 116.523438 L 229.066406 116.414062 L 229.066406 116.386719 L 229.011719 116.300781 L 229.011719 116.273438 L 228.957031 116.191406 L 228.851562 115.96875 L 228.796875 115.863281 L 228.742188 115.78125 C 228.6875 115.695312 228.660156 115.644531 228.605469 115.589844 L 228.578125 115.558594 L 228.523438 115.476562 L 228.523438 115.449219 L 228.46875 115.394531 L 228.414062 115.3125 L 228.386719 115.28125 L 228.355469 115.253906 L 228.304688 115.199219 L 228.273438 115.167969 L 228.21875 115.117188 C 228.113281 114.949219 227.972656 114.8125 227.808594 114.675781 L 227.78125 114.648438 L 227.726562 114.617188 L 227.671875 114.5625 L 227.621094 114.535156 L 227.535156 114.449219 L 227.480469 114.421875 L 227.453125 114.367188 L 227.410156 114.339844 L 227.355469 114.308594 Z M 227.164062 114.171875 " fill-opacity="1" fill-rule="evenodd"/></g></svg>