<?xml version="1.0" standalone="no"?>
<!DOCTYPE svg PUBLIC "-//W3C//DTD SVG 20010904//EN"
 "http://www.w3.org/TR/2001/REC-SVG-20010904/DTD/svg10.dtd">
<svg version="1.0" xmlns="http://www.w3.org/2000/svg"
 width="512.000000pt" height="512.000000pt" viewBox="0 0 512.000000 512.000000"
 preserveAspectRatio="xMidYMid meet">
<metadata>
Created by potrace 1.14, written by Peter Selinger 2001-2017
</metadata>
<g transform="translate(0.000000,512.000000) scale(0.100000,-0.100000)"
fill="#000000" stroke="none">
<path d="M2205 4702 c-187 -109 -428 -249 -535 -311 -107 -63 -382 -223 -610
-356 -228 -133 -439 -255 -467 -271 l-53 -29 0 -1175 0 -1175 43 -24 c52 -29
901 -522 1172 -681 488 -286 793 -460 805 -460 12 0 317 174 805 460 271 159
1120 652 1172 681 l43 24 0 1175 0 1175 -43 24 c-52 29 -901 522 -1172 681
-505 295 -793 460 -806 460 -8 0 -167 -90 -354 -198z m52 -594 c70 -26 157
-108 194 -183 l24 -50 0 -1315 0 -1315 -23 -47 c-35 -70 -102 -140 -169 -173
-52 -27 -68 -30 -153 -30 -89 0 -99 2 -158 34 -94 51 -170 150 -187 245 -7 34
-10 37 -34 32 -77 -15 -102 -16 -166 -6 -131 21 -247 108 -303 228 -24 51 -27
70 -28 171 l-1 114 -67 35 c-85 45 -189 153 -233 243 -91 184 -79 397 31 562
l38 56 -29 68 c-24 59 -28 81 -28 169 0 95 2 104 37 175 74 149 221 249 366
249 l45 0 -9 33 c-5 17 -9 79 -9 137 0 97 2 110 31 170 40 83 100 151 170 191
61 34 140 59 193 59 27 0 41 8 68 40 41 47 108 96 161 115 59 22 172 19 239
-7z m886 -10 c33 -16 81 -51 113 -83 45 -45 62 -55 89 -55 52 0 156 -36 207
-72 62 -45 124 -122 150 -188 17 -43 22 -77 22 -155 1 -55 -3 -116 -7 -136
l-9 -36 65 -5 c94 -8 192 -56 261 -127 125 -132 157 -293 92 -465 l-26 -69 40
-62 c62 -99 85 -181 85 -305 0 -83 -5 -119 -23 -172 -45 -131 -154 -259 -276
-324 l-59 -32 -1 -113 c-1 -100 -5 -121 -27 -169 -84 -179 -269 -266 -475
-224 -18 3 -23 -2 -29 -33 -17 -94 -93 -193 -187 -244 -59 -32 -69 -34 -158
-34 -85 0 -101 3 -153 30 -67 33 -134 103 -169 173 l-23 47 -3 1302 -2 1302
22 58 c29 78 121 171 198 201 80 32 203 27 283 -10z"/>
<path d="M2919 4027 c-80 -23 -148 -90 -177 -176 -9 -25 -12 -238 -12 -767 0
-404 2 -734 5 -734 3 0 23 18 45 40 21 21 57 48 78 59 28 14 41 28 45 49 14
68 105 121 183 106 43 -8 97 -52 114 -94 18 -43 8 -120 -19 -157 -54 -72 -159
-82 -232 -23 l-41 32 -36 -29 c-42 -33 -93 -127 -118 -218 -14 -50 -18 -122
-22 -426 -2 -247 0 -379 7 -406 51 -189 284 -261 419 -130 47 45 71 87 81 141
9 47 8 47 -28 70 -42 27 -107 96 -139 147 -16 27 -31 39 -57 43 -46 9 -101 65
-115 116 -15 57 1 110 49 153 68 61 162 58 220 -8 54 -62 59 -126 16 -201 -18
-30 -18 -31 13 -76 66 -96 162 -148 276 -148 93 0 151 24 216 89 63 63 90 128
90 215 0 72 -7 79 -61 67 -24 -6 -73 -11 -109 -11 -61 0 -67 -2 -99 -35 -77
-79 -213 -52 -257 52 -21 48 -17 91 11 140 31 52 73 75 136 75 62 0 108 -26
137 -80 23 -41 25 -42 74 -42 96 0 251 50 330 107 67 48 106 97 147 182 35 74
36 79 36 196 0 111 -2 125 -29 182 -43 94 -46 94 -115 30 -33 -30 -90 -69
-126 -86 -36 -17 -65 -37 -65 -45 0 -25 -64 -83 -106 -96 -73 -22 -155 15
-188 84 -48 100 18 213 132 224 52 5 96 -11 131 -49 l19 -20 51 26 c71 35 163
132 202 210 29 59 31 70 27 147 -4 93 -24 147 -83 216 -46 53 -141 99 -221
108 l-62 6 -34 -53 c-52 -81 -147 -170 -242 -225 -82 -47 -86 -51 -86 -84 0
-45 -39 -102 -83 -124 -101 -47 -220 14 -234 122 -7 54 26 124 73 153 43 26
117 28 163 5 31 -16 33 -16 90 15 114 60 237 203 278 322 28 82 24 189 -9 257
-51 104 -157 184 -253 192 l-40 3 -6 -47 c-10 -69 -35 -138 -70 -192 -27 -44
-29 -50 -18 -88 20 -77 -38 -170 -117 -188 -106 -24 -194 48 -194 157 0 88 65
153 153 153 50 0 62 10 101 87 48 96 44 172 -12 226 -55 52 -154 75 -233 54z"/>
<path d="M3022 3554 c-15 -10 -22 -25 -22 -47 0 -40 9 -53 41 -66 55 -20 110
38 84 90 -22 41 -63 51 -103 23z"/>
<path d="M3127 2988 c-9 -7 -19 -25 -22 -40 -9 -34 31 -78 70 -78 55 0 87 77
47 113 -22 20 -71 22 -95 5z"/>
<path d="M3592 2527 c-44 -46 -16 -107 48 -107 64 0 92 62 50 108 -27 29 -71
28 -98 -1z"/>
<path d="M3024 2510 c-46 -18 -48 -96 -4 -120 71 -38 137 60 74 109 -29 23
-38 24 -70 11z"/>
<path d="M3364 1882 c-26 -17 -36 -53 -24 -83 29 -68 130 -40 130 36 0 38 -72
70 -106 47z"/>
<path d="M3030 1768 c-31 -12 -40 -25 -40 -65 0 -56 69 -84 110 -43 51 51 -3
133 -70 108z"/>
</g>
</svg>
